<svg xmlns="http://www.w3.org/2000/svg" viewBox="0 0 84.13 32.39"><defs><style>.cls-1{fill:#ee3134;}.cls-2{fill:#f79231;}.cls-3{fill:#0d6b95;}.cls-4{fill:#0aae5f;}.cls-5,.cls-7{fill:#fff;}.cls-5{fill-rule:evenodd;}.cls-6{fill:none;stroke:#fff;stroke-miterlimit:10;stroke-width:0.5px;}</style></defs><title>instagram</title><g id="Capa_2" data-name="Capa 2"><g id="Capa_1-2" data-name="Capa 1"><path class="cls-1" d="M35.08,3.18a9.56,9.56,0,0,0-2.77,7.36,10.14,10.14,0,0,0,2.83,6.58L37,15.32a7.62,7.62,0,0,1-2.1-5.22,7.16,7.16,0,0,1,2-5.19Z"/><path class="cls-2" d="M42.82,0a9.64,9.64,0,0,0-7.35,2.78L37.2,4.52a7.13,7.13,0,0,1,5.2-1.95,7.63,7.63,0,0,1,5.22,2.09l1.81-1.8A10.14,10.14,0,0,0,42.82,0"/><path class="cls-3" d="M47.82,15.92a7.51,7.51,0,0,1-3.17,1.8,7.1,7.1,0,0,1-3.93,0,8,8,0,0,1-3.39-2l-1.8,1.8a10.09,10.09,0,0,0,6.86,2.88,9.44,9.44,0,0,0,7.1-2.82Z"/><path class="cls-4" d="M48,5.05a7.92,7.92,0,0,1,2,3.37A7.07,7.07,0,0,1,50,12.34a7.6,7.6,0,0,1-1.82,3.18l1.67,1.67a9.46,9.46,0,0,0,2.81-7.08,10.13,10.13,0,0,0-2.87-6.87Z"/><path class="cls-5" d="M45.25,8.09a.67.67,0,1,1,.67-.67.67.67,0,0,1-.67.67"/><path class="cls-6" d="M45.12,5.53H39.89a2.07,2.07,0,0,0-2.06,2.06v5.22a2.06,2.06,0,0,0,2.06,2.06h5.23a2.06,2.06,0,0,0,2.05-2.06V7.59A2.07,2.07,0,0,0,45.12,5.53Z"/><path class="cls-5" d="M42.34,13.17a2.8,2.8,0,1,1,2.79-2.79,2.79,2.79,0,0,1-2.79,2.79m0-4.65a1.86,1.86,0,1,0,1.86,1.86A1.87,1.87,0,0,0,42.34,8.52Z"/><path class="cls-7" d="M0,28.57a3.6,3.6,0,0,1,3.62-3.63A3.13,3.13,0,0,1,7,28c0,1.59-.92,2.16-1.6,2.16s-.9-.29-1-.73a1.53,1.53,0,0,1-1.27.79A1.32,1.32,0,0,1,1.8,28.79a1.81,1.81,0,0,1,1.67-2,1,1,0,0,1,1,.58l0-.51h.71L5,29c-.06.45.09.67.41.67.48,0,1-.48,1-1.63a2.49,2.49,0,0,0-2.77-2.57,2.91,2.91,0,0,0-3,3.06,2.74,2.74,0,0,0,2.86,2.91,2.76,2.76,0,0,0,2-.69h.66A3,3,0,0,1,3.51,32,3.35,3.35,0,0,1,0,28.57m4.4-.23c0-.65-.33-1-.88-1s-1,.51-1,1.4c0,.59.34.94.8.94S4.4,29.24,4.4,28.34Z"/><path class="cls-7" d="M7.73,29.41h.69c.05.52.33.85,1,.85s1-.23,1-.7-.35-.62-1-.75c-1.15-.21-1.54-.53-1.54-1.3a1.37,1.37,0,0,1,1.5-1.25A1.41,1.41,0,0,1,11,27.54h-.68a.81.81,0,0,0-.93-.7c-.51,0-.84.26-.84.64s.22.56,1,.7,1.56.38,1.56,1.32-.56,1.35-1.63,1.35-1.7-.54-1.74-1.44"/><path class="cls-7" d="M11.8,29.54c0-1,1.09-1.37,2.22-1.37h.64v-.33c0-.7-.27-1-.95-1s-1,.26-1,.8H12a1.55,1.55,0,0,1,1.75-1.38,1.43,1.43,0,0,1,1.62,1.58v2.93h-.7v-.56a1.62,1.62,0,0,1-1.39.64c-.82,0-1.47-.4-1.47-1.31m2.86-.32v-.55h-.61c-.89,0-1.55.22-1.55.87,0,.46.23.74.84.74S14.66,29.9,14.66,29.22Z"/><path class="cls-7" d="M16.75,26.33h.7V27a1.52,1.52,0,0,1,1.43-.78c.91,0,1.56.5,1.56,1.79v2.72h-.71V28c0-.78-.33-1.13-1-1.13a1.17,1.17,0,0,0-1.24,1.21v2.69h-.7Z"/><polygon class="cls-7" points="21.32 26.33 22.08 26.33 23.4 30.06 24.7 26.33 25.42 26.33 23.83 30.77 22.93 30.77 21.32 26.33"/><path class="cls-7" d="M26.24,24.94a.47.47,0,1,1,.47.47.47.47,0,0,1-.47-.47m.13,1.39h.7v4.44h-.7Z"/><path class="cls-7" d="M28.18,28.6v-.07a2.15,2.15,0,0,1,2.16-2.27,1.73,1.73,0,0,1,1.92,1.55h-.69a1.11,1.11,0,0,0-1.23-1,1.5,1.5,0,0,0-1.43,1.69v.07c0,1.08.6,1.66,1.45,1.66a1.19,1.19,0,0,0,1.27-1.08h.66a1.87,1.87,0,0,1-1.94,1.67,2.12,2.12,0,0,1-2.17-2.25"/><path class="cls-7" d="M33.5,29.66V26.93h-.63v-.6h.63v-1h.71v1h1v.6h-1v2.66c0,.43.19.65.55.65a1.41,1.41,0,0,0,.54-.1v.6a1.67,1.67,0,0,1-.6.09,1.08,1.08,0,0,1-1.2-1.17"/><path class="cls-7" d="M36,28.59v-.07a2.18,2.18,0,1,1,4.36,0v.06a2.18,2.18,0,1,1-4.36,0m3.63,0v-.06c0-1-.57-1.69-1.45-1.69a1.48,1.48,0,0,0-1.45,1.68v.07c0,1,.55,1.67,1.45,1.67A1.47,1.47,0,0,0,39.66,28.59Z"/><path class="cls-7" d="M41.49,26.33h.7v.8a1.54,1.54,0,0,1,1.46-.87v.66c-.89,0-1.46.32-1.46,1.42v2.43h-.7Z"/><path class="cls-7" d="M44.56,24.94a.47.47,0,1,1,.47.47.47.47,0,0,1-.47-.47m.13,1.39h.71v4.44h-.71Z"/><path class="cls-7" d="M46.84,26.33h.7V27A1.53,1.53,0,0,1,49,26.26c.91,0,1.56.5,1.56,1.79v2.72h-.71V28c0-.78-.33-1.13-1-1.13a1.17,1.17,0,0,0-1.24,1.21v2.69h-.7Z"/><path class="cls-7" d="M51.58,28.59v-.07a2.18,2.18,0,1,1,4.36,0v.06a2.18,2.18,0,1,1-4.36,0m3.63,0v-.06c0-1-.57-1.69-1.45-1.69a1.48,1.48,0,0,0-1.45,1.68v.07c0,1,.55,1.67,1.45,1.67A1.47,1.47,0,0,0,55.21,28.59Z"/><path class="cls-7" d="M57.74,30v.73H57V24.21h.7v2.87a1.81,1.81,0,0,1,1.5-.82,2,2,0,0,1,2,2.23v.07a2.06,2.06,0,0,1-2,2.29,1.69,1.69,0,0,1-1.5-.81m2.79-1.45v-.07c0-1.12-.62-1.68-1.36-1.68s-1.45.55-1.45,1.68v.07c0,1.14.59,1.67,1.45,1.67S60.53,29.67,60.53,28.59Z"/><path class="cls-7" d="M62,28.59v-.07a2.18,2.18,0,1,1,4.36,0v.06a2.18,2.18,0,1,1-4.36,0m3.63,0v-.06c0-1-.56-1.69-1.45-1.69a1.48,1.48,0,0,0-1.45,1.68v.07a1.46,1.46,0,1,0,2.9,0Z"/><path class="cls-7" d="M67.24,31H68c.1.51.53.78,1.28.78a1.25,1.25,0,0,0,1.43-1.37v-.64a1.86,1.86,0,0,1-1.5.84,2,2,0,0,1-2-2.11v-.06a2.1,2.1,0,0,1,2.07-2.2,1.58,1.58,0,0,1,1.45.79v-.72h.7v4.14a1.86,1.86,0,0,1-2.12,1.92c-1.31,0-1.89-.62-2-1.37m3.45-2.55v-.06a1.38,1.38,0,0,0-1.4-1.57,1.41,1.41,0,0,0-1.41,1.59v.07A1.4,1.4,0,0,0,69.24,30,1.43,1.43,0,0,0,70.69,28.47Z"/><path class="cls-7" d="M72.47,28.59v-.07a2.18,2.18,0,1,1,4.36,0v.06a2.18,2.18,0,1,1-4.36,0m3.63,0v-.06c0-1-.57-1.69-1.45-1.69a1.48,1.48,0,0,0-1.45,1.68v.07c0,1,.55,1.67,1.45,1.67A1.47,1.47,0,0,0,76.1,28.59Z"/><path class="cls-7" d="M78.08,29.66V26.93h-.64v-.6h.64v-1h.7v1h1v.6h-1v2.66c0,.43.19.65.55.65a1.41,1.41,0,0,0,.54-.1v.6a1.67,1.67,0,0,1-.6.09,1.08,1.08,0,0,1-1.19-1.17"/><path class="cls-7" d="M80.57,29.54c0-1,1.09-1.37,2.22-1.37h.64v-.33c0-.7-.27-1-1-1s-1,.26-1,.8h-.7a1.55,1.55,0,0,1,1.75-1.38,1.43,1.43,0,0,1,1.62,1.58v2.93h-.7v-.56a1.62,1.62,0,0,1-1.39.64c-.82,0-1.47-.4-1.47-1.31m2.86-.32v-.55h-.61c-.89,0-1.55.22-1.55.87,0,.46.22.74.84.74S83.43,29.9,83.43,29.22Z"/></g></g></svg>