<svg xmlns="http://www.w3.org/2000/svg" viewBox="0 0 83.06 32.39"><defs><style>.cls-1{fill:#ee3134;}.cls-2{fill:#f79231;}.cls-3{fill:#0d6b95;}.cls-4{fill:#0aae5f;}.cls-5,.cls-6{fill:#fff;}.cls-5{fill-rule:evenodd;}</style></defs><title>youtube</title><g id="Capa_2" data-name="Capa 2"><g id="Capa_1-2" data-name="Capa 1"><path class="cls-1" d="M34.59,3.18a9.64,9.64,0,0,0-2.77,7.36,10.1,10.1,0,0,0,2.84,6.58l1.8-1.8a7.61,7.61,0,0,1-2.09-5.22,7.11,7.11,0,0,1,2-5.19Z"/><path class="cls-2" d="M42.33,0A9.61,9.61,0,0,0,35,2.79l1.73,1.73a7.11,7.11,0,0,1,5.19-1.95,7.61,7.61,0,0,1,5.22,2.09l1.81-1.8A10.14,10.14,0,0,0,42.33,0"/><path class="cls-3" d="M47.34,15.92a7.63,7.63,0,0,1-3.17,1.8,7.14,7.14,0,0,1-3.94,0,7.93,7.93,0,0,1-3.38-2l-1.8,1.8a10.07,10.07,0,0,0,6.86,2.88A9.45,9.45,0,0,0,49,17.58Z"/><path class="cls-4" d="M47.53,5.05a7.92,7.92,0,0,1,2,3.37,7.07,7.07,0,0,1,.06,3.92,7.49,7.49,0,0,1-1.82,3.18l1.67,1.67a9.46,9.46,0,0,0,2.81-7.08,10,10,0,0,0-2.87-6.87Z"/><polygon class="cls-5" points="46.9 10.2 39.01 5.65 39.01 14.76 46.9 10.2"/><path class="cls-6" d="M0,28.92H.71c.1.72.38,1.33,1.6,1.33A1.24,1.24,0,0,0,3.7,29.11c0-.69-.32-1-1.47-1.16s-2-.6-2-1.67a1.76,1.76,0,0,1,2-1.65A1.84,1.84,0,0,1,4.24,26.3H3.58a1.24,1.24,0,0,0-1.43-1.08c-.83,0-1.26.42-1.26,1s.22.9,1.46,1.08,2.06.62,2.06,1.77a1.92,1.92,0,0,1-2.1,1.79A2,2,0,0,1,0,28.92"/><path class="cls-6" d="M5.26,29.54c0-1,1.09-1.37,2.22-1.37h.64v-.33c0-.7-.27-1-.95-1s-1,.26-1,.8h-.7A1.55,1.55,0,0,1,7.2,26.26a1.43,1.43,0,0,1,1.62,1.58v2.93h-.7v-.56a1.61,1.61,0,0,1-1.38.64c-.83,0-1.48-.4-1.48-1.31m2.86-.32v-.55H7.51c-.89,0-1.55.22-1.55.87,0,.46.23.74.84.74S8.12,29.9,8.12,29.22Z"/><path class="cls-6" d="M10.21,26.33h.7V27a1.5,1.5,0,0,1,1.42-.78c.92,0,1.56.5,1.56,1.79v2.72h-.7V28c0-.78-.33-1.13-1-1.13a1.16,1.16,0,0,0-1.24,1.21v2.69h-.7Z"/><polygon class="cls-6" points="17.07 24.71 17.8 24.71 19.6 30.06 21.41 24.71 22.11 24.71 20.01 30.77 19.13 30.77 17.07 24.71"/><path class="cls-6" d="M23,24.94a.47.47,0,1,1,.46.47.47.47,0,0,1-.46-.47m.12,1.39h.71v4.44h-.71Z"/><path class="cls-6" d="M24.91,28.6v-.07a2.15,2.15,0,0,1,2.15-2.27A1.74,1.74,0,0,1,29,27.81h-.7a1.11,1.11,0,0,0-1.23-1,1.5,1.5,0,0,0-1.42,1.69v.07c0,1.08.59,1.66,1.45,1.66a1.19,1.19,0,0,0,1.27-1.08H29a1.85,1.85,0,0,1-1.93,1.67,2.11,2.11,0,0,1-2.17-2.25"/><path class="cls-6" d="M30.23,29.66V26.93h-.64v-.6h.64v-1h.7v1h1v.6h-1v2.66c0,.43.2.65.55.65a1.41,1.41,0,0,0,.54-.1v.6a1.67,1.67,0,0,1-.6.09,1.08,1.08,0,0,1-1.19-1.17"/><path class="cls-6" d="M32.76,28.59v-.07a2.18,2.18,0,1,1,4.35,0v.06a2.18,2.18,0,1,1-4.35,0m3.62,0v-.06c0-1-.56-1.69-1.45-1.69a1.48,1.48,0,0,0-1.45,1.68v.07c0,1,.55,1.67,1.45,1.67A1.47,1.47,0,0,0,36.38,28.59Z"/><path class="cls-6" d="M38.21,26.33h.7v.8a1.54,1.54,0,0,1,1.46-.87v.66c-.89,0-1.46.32-1.46,1.42v2.43h-.7Z"/><path class="cls-6" d="M41.29,24.94a.47.47,0,1,1,.47.47.47.47,0,0,1-.47-.47m.13,1.39h.7v4.44h-.7Z"/><path class="cls-6" d="M43.56,26.33h.71V27a1.5,1.5,0,0,1,1.42-.78c.92,0,1.56.5,1.56,1.79v2.72h-.7V28c0-.78-.33-1.13-1-1.13a1.16,1.16,0,0,0-1.24,1.21v2.69h-.71Z"/><path class="cls-6" d="M48.31,28.59v-.07a2.18,2.18,0,1,1,4.35,0v.06a2.18,2.18,0,1,1-4.35,0m3.63,0v-.06c0-1-.57-1.69-1.45-1.69S49,27.51,49,28.52v.07c0,1,.55,1.67,1.45,1.67A1.47,1.47,0,0,0,51.94,28.59Z"/><path class="cls-6" d="M56.06,24.71h1.82c1.13,0,1.95.37,1.95,1.57v0a1.24,1.24,0,0,1-.91,1.28A1.33,1.33,0,0,1,60.13,29v0c0,1.15-.78,1.7-2,1.7H56.06Zm1.82,2.64c.89,0,1.23-.32,1.23-1.07v0c0-.69-.4-1-1.24-1H56.78v2.07Zm.24,2.84c.88,0,1.29-.39,1.29-1.13v0c0-.74-.42-1.1-1.39-1.1H56.78v2.26Z"/><path class="cls-6" d="M61,28.59v-.07a2.18,2.18,0,1,1,4.36,0v.06a2.18,2.18,0,1,1-4.36,0m3.63,0v-.06c0-1-.56-1.69-1.45-1.69a1.48,1.48,0,0,0-1.45,1.68v.07a1.46,1.46,0,1,0,2.9,0Z"/><path class="cls-6" d="M66.17,31h.72c.1.51.53.78,1.28.78a1.25,1.25,0,0,0,1.43-1.37v-.64a1.86,1.86,0,0,1-1.5.84,2,2,0,0,1-2-2.11v-.06a2.1,2.1,0,0,1,2.07-2.2,1.58,1.58,0,0,1,1.45.79v-.72h.7v4.14a1.86,1.86,0,0,1-2.12,1.92c-1.31,0-1.89-.62-2-1.37m3.45-2.55v-.06a1.38,1.38,0,0,0-1.4-1.57,1.41,1.41,0,0,0-1.41,1.59v.07A1.4,1.4,0,0,0,68.17,30,1.43,1.43,0,0,0,69.62,28.47Z"/><path class="cls-6" d="M71.4,28.59v-.07a2.18,2.18,0,1,1,4.36,0v.06a2.18,2.18,0,1,1-4.36,0m3.63,0v-.06c0-1-.57-1.69-1.45-1.69a1.48,1.48,0,0,0-1.45,1.68v.07c0,1,.55,1.67,1.45,1.67A1.47,1.47,0,0,0,75,28.59Z"/><path class="cls-6" d="M77,29.66V26.93h-.64v-.6H77v-1h.7v1h1v.6h-1v2.66c0,.43.19.65.55.65a1.41,1.41,0,0,0,.54-.1v.6a1.67,1.67,0,0,1-.6.09A1.08,1.08,0,0,1,77,29.66"/><path class="cls-6" d="M79.5,29.54c0-1,1.09-1.37,2.22-1.37h.64v-.33c0-.7-.27-1-1-1s-1,.26-1,.8h-.7a1.55,1.55,0,0,1,1.75-1.38,1.43,1.43,0,0,1,1.62,1.58v2.93h-.7v-.56a1.59,1.59,0,0,1-1.38.64c-.83,0-1.48-.4-1.48-1.31m2.86-.32v-.55h-.61c-.89,0-1.55.22-1.55.87,0,.46.22.75.84.75S82.36,29.91,82.36,29.22Zm-.7-4.89h.88l-.88,1.24h-.52Z"/></g></g></svg>